# xmcd
# Track frame offsets:
# 150
# 12816
# 27723
# 42310
# 55249
# 73399
# 90921
# 105041
# 123296
# 136499
#
# Disc length: 1966 seconds
# Revision: 0
# Processed by: cddbd v1.5.1PL0 Copyright (c) Steve Scherf et al.
# Submitted via: VisiTrax 2.9.10.220 - For more info visit www.synapsa.com
#
DISCID=7f07ac0a
DTITLE=Shorty Hill - So Just Get Over It!...
DYEAR=2005
DGENRE=Pop/Rock
TTITLE0=20 Flight Rock
TTITLE1=Is This Love?
TTITLE2=Steppin' Stone
TTITLE3=Hey There Then Now
TTITLE4=Unsolved Riddle
TTITLE5=Little Sister
TTITLE6=Grandma Plays the Numbers
TTITLE7=Got My Mojo Working
TTITLE8=Little Danny Orphan
TTITLE9=Java Jive
EXTD=2005 Rico Tico Music
EXTT0=
EXTT1=
EXTT2=
EXTT3=
EXTT4=
EXTT5=
EXTT6=
EXTT7=
EXTT8=
EXTT9=
PLAYORDER=
